<svg width="72.000000" height="72.000000" viewBox="0 0 72 72" fill="none" xmlns="http://www.w3.org/2000/svg" xmlns:xlink="http://www.w3.org/1999/xlink">
	<desc>
			Created with Pixso.
	</desc>
	<defs>
		<clipPath id="clip964_17605">
			<rect id="icn settings .icn-xl" width="72.000000" height="72.000000" fill="white" fill-opacity="0"/>
		</clipPath>
	</defs>
	<rect id="icn settings .icn-xl" width="72.000000" height="72.000000" fill="#FFFFFF" fill-opacity="0"/>
	<g clip-path="url(#clip964_17605)">
		<path id="Vector" d="M29 42C36.99 42 43.5 35.72 43.5 28C43.5 20.27 36.99 14 29 14C21 14 14.5 20.27 14.5 28C14.5 35.72 21 42 29 42ZM29 21C32.99 21 36.25 24.13 36.25 28C36.25 31.86 32.99 35 29 35C25 35 21.75 31.86 21.75 28C21.75 24.13 25 21 29 21Z" fill="#FFFFFF" fill-opacity="1.000000" fill-rule="nonzero"/>
		<path id="Vector" d="M26.93 70.34C27.53 70.76 28.25 71 29 71C29.74 71 30.46 70.76 31.06 70.34C32.14 69.57 57.6 51.26 57.5 28.4C57.5 12.74 44.71 0 29 0C13.28 0 0.5 12.74 0.5 28.38C0.39 51.26 25.85 69.57 26.93 70.34ZM29 7.1C40.78 7.1 50.37 16.65 50.37 28.41C50.44 44.17 34.74 58.31 29 62.95C23.26 58.31 7.55 44.16 7.62 28.4C7.62 16.65 17.21 7.1 29 7.1Z" fill="#FFFFFF" fill-opacity="1.000000" fill-rule="nonzero"/>
	</g>
</svg>
