<svg width="24.000000" height="17.684204" viewBox="0 0 24 17.6842" fill="none" xmlns="http://www.w3.org/2000/svg" xmlns:xlink="http://www.w3.org/1999/xlink">
	<desc>
			Created with Pixso.
	</desc>
	<defs>
		<clipPath id="clip964_17644">
			<rect id="carbon:logo-youtube" width="24.000000" height="17.684210" fill="white" fill-opacity="0"/>
		</clipPath>
	</defs>
	<rect id="carbon:logo-youtube" width="24.000000" height="17.684210" fill="#FFFFFF" fill-opacity="0"/>
	<g clip-path="url(#clip964_17644)">
		<path id="Vector" d="M23.46 2.77C23.33 2.24 23.06 1.75 22.69 1.36C22.32 0.97 21.86 0.69 21.35 0.55C19.48 0.01 11.98 0.01 11.98 0.01C11.98 0.01 4.48 0.01 2.62 0.55C2.11 0.69 1.65 0.97 1.28 1.36C0.9 1.75 0.64 2.24 0.5 2.77C0.15 4.77 -0.02 6.8 0 8.84C-0.02 10.87 0.15 12.9 0.5 14.91C0.64 15.44 0.9 15.92 1.28 16.31C1.65 16.71 2.11 16.99 2.62 17.13C4.48 17.66 11.98 17.66 11.98 17.66C11.98 17.66 19.48 17.66 21.35 17.13C21.86 16.99 22.32 16.71 22.69 16.31C23.06 15.92 23.33 15.44 23.46 14.91C23.81 12.9 23.98 10.87 23.97 8.84C23.98 6.8 23.81 4.77 23.46 2.77ZM9.59 12.62L9.59 5.06L15.81 8.84L9.59 12.62Z" fill="#E42F08" fill-opacity="1.000000" fill-rule="nonzero"/>
	</g>
</svg>
