<svg width="103.000000" height="34.000000" viewBox="0 0 103 34" fill="none" xmlns="http://www.w3.org/2000/svg" xmlns:xlink="http://www.w3.org/1999/xlink">
	<desc>
			Created with Pixso.
	</desc>
	<defs>
		<clipPath id="clip964_17555">
			<rect id="fa-brands:hooli" width="103.000000" height="34.000000" fill="white" fill-opacity="0"/>
		</clipPath>
	</defs>
	<rect id="fa-brands:hooli" width="103.000000" height="34.000000" fill="#FFFFFF" fill-opacity="0"/>
	<g clip-path="url(#clip964_17555)">
		<path id="Vector" d="M23.25 31.92L29.41 32.05C27.29 31.31 25.23 30.42 23.25 29.37L23.25 31.92ZM32.54 31.07L32.54 31.92L29.41 32.05C35.29 34.04 40.66 34.31 44.66 33.2C41.45 33.23 37.28 32.78 32.54 31.07ZM98.34 12.69C100.9 12.69 103 10.63 103 8.07C103 5.52 100.92 4.16 98.34 4.16C95.79 4.16 93.69 5.53 93.69 8.07C93.69 10.61 95.77 12.69 98.34 12.69ZM93.68 31.92L103 31.92L103 14.28L93.68 14.28L93.68 31.92ZM81.82 31.92L91.13 31.92L91.13 0.75L81.82 5.1L81.82 31.92ZM76.83 12.86C73.9 9.96 68.71 10.13 68.71 10.13C68.71 10.13 63.52 9.96 60.6 12.86C57.67 15.77 57.9 18.27 57.9 21.26C57.9 24.24 57.67 26.73 60.6 29.64C63.53 32.54 68.71 32.37 68.71 32.37C68.71 32.37 73.91 32.54 76.83 29.64C79.76 26.73 79.53 24.24 79.53 21.26C79.51 18.26 79.74 15.75 76.83 12.86ZM70.42 24.34C70.42 24.91 70.13 26.33 68.7 26.33C67.27 26.33 66.98 24.91 66.98 24.34L66.98 17.89C66.98 16.5 68.15 16.15 68.7 16.15C69.25 16.15 70.42 16.48 70.42 17.89L70.42 24.34ZM53.33 12.86C50.4 9.96 45.22 10.13 45.22 10.13C45.22 10.13 40.04 9.96 37.11 12.86C36.8 13.16 36.51 13.48 36.25 13.82C30.11 9.09 24.59 6.4 19.82 4.07L19.82 0.76L16.2 2.45C7.45 -1.07 1.88 -0.45 0.54 2.47C0.54 2.47 -3.46 7.7 10.49 20.16L10.49 31.92L19.81 31.92L19.81 27.35C18.76 26.68 17.71 25.97 16.68 25.18C14.3 23.4 12.27 21.74 10.5 20.17L10.5 15.22C12.61 17.57 15.41 20.24 19.1 23.25L19.82 23.83L19.82 19.07C19.82 17.97 20.1 16.16 21.56 16.16C23.03 16.16 23.27 17.27 23.27 18.56L23.27 26.33C26.16 28.28 29.27 29.86 32.55 31.06L32.55 16.07C32.55 13.08 30.4 10.1 26.02 10.1C23.48 10.08 21.11 11.41 19.82 13.6L19.82 4.93C26.57 8.26 33.33 12.35 35.9 14.23C34.26 16.56 34.4 18.72 34.4 21.21C34.4 24.19 34.18 26.68 37.11 29.59C40.04 32.49 45.22 32.32 45.22 32.32C45.22 32.32 50.42 32.49 53.33 29.59C56.26 26.68 56.02 24.19 56.02 21.21C56.02 18.26 56.26 15.75 53.33 12.86ZM10.49 5.1L10.49 15.21C2.65 6.51 4.23 3.08 4.82 2.58C7 0.76 10.86 1.3 15.19 2.92L10.49 5.1ZM46.94 24.34C46.94 24.91 46.65 26.33 45.22 26.33C43.79 26.33 43.5 24.91 43.5 24.34L43.5 17.89C43.5 16.5 44.67 16.15 45.22 16.15C45.77 16.15 46.94 16.48 46.94 17.89L46.94 24.34Z" fill="#737373" fill-opacity="1.000000" fill-rule="nonzero"/>
	</g>
</svg>
