<svg width="83.000000" height="59.000000" viewBox="0 0 83 59" fill="none" xmlns="http://www.w3.org/2000/svg" xmlns:xlink="http://www.w3.org/1999/xlink">
	<desc>
			Created with Pixso.
	</desc>
	<defs>
		<clipPath id="clip964_17558">
			<rect id="fa-brands:lyft" width="83.000000" height="59.000000" fill="white" fill-opacity="0"/>
		</clipPath>
	</defs>
	<rect id="fa-brands:lyft" width="83.000000" height="59.000000" fill="#FFFFFF" fill-opacity="0"/>
	<g clip-path="url(#clip964_17558)">
		<path id="Vector" d="M0 0.99L12.61 0.99L12.61 35C12.61 40.4 15.04 43.61 17.02 44.95C14.96 46.76 8.72 48.35 4.02 44.49C1.26 42.21 0 38.41 0 34.87L0 0.99ZM78.76 29.27L78.76 25.68L82.62 25.68L82.62 13.17L78.39 13.17C76.75 5.62 70.09 0.01 62.13 0.01C52.96 0.01 45.48 7.51 45.48 16.75L45.48 45.96C48.08 46.33 51.22 45.91 53.86 43.68C56.64 41.39 57.88 37.61 57.88 34.06L57.88 32.97L64.17 32.97L64.17 20.45L57.88 20.45L57.88 16.65C57.88 11.01 66.35 11.01 66.35 16.65L66.35 29.22C66.35 38.44 73.8 45.96 83 45.96L83 33.49C80.64 33.49 78.76 31.58 78.76 29.27ZM31.06 13.13L31.06 31.55C31.06 34.06 27.2 34.06 27.2 31.55L27.2 13.13L14.75 13.13L14.75 34.76C14.75 38.64 16.04 43.56 22.04 45.17C28.04 46.77 31.48 43.45 31.48 43.45C31.14 45.63 29.13 47.25 25.82 47.57C23.31 47.83 20.11 46.98 18.52 46.3L18.52 57.76C22.59 58.98 26.87 59.35 31.1 58.52C38.74 57.04 43.55 50.63 43.55 42.09L43.55 13.05L31.06 13.05L31.06 13.13Z" fill="#737373" fill-opacity="1.000000" fill-rule="nonzero"/>
	</g>
</svg>
