<svg width="102.000000" height="75.000000" viewBox="0 0 102 75" fill="none" xmlns="http://www.w3.org/2000/svg" xmlns:xlink="http://www.w3.org/1999/xlink">
	<desc>
			Created with Pixso.
	</desc>
	<defs>
		<clipPath id="clip964_17561">
			<rect id="fa-brands:pied-piper-hat" width="102.000000" height="75.000000" fill="white" fill-opacity="0"/>
		</clipPath>
	</defs>
	<rect id="fa-brands:pied-piper-hat" width="102.000000" height="75.000000" fill="#FFFFFF" fill-opacity="0"/>
	<g clip-path="url(#clip964_17561)">
		<path id="Vector" d="M102 0.14C89.12 8.82 87.75 15.12 86.63 17.05C85.56 19.03 84.77 26.82 82.92 30.59C81.05 34.42 74.28 37.43 72.38 38.69C70.52 39.96 67.87 44.87 65.71 49.09C48.48 48.38 39.03 55.38 24.4 64.26C29.08 62.68 31.3 61.55 31.3 61.55C46.31 55.72 53.5 50.49 76.1 53.58C76.27 53.58 76.4 53.68 76.54 53.71C77.16 54.07 77.39 54.83 77.04 55.46L68.45 70.98C68.05 71.74 67.2 72.14 66.36 71.97C46.15 68.11 30.2 74.77 15.53 74.98C3.84 75.16 0 69.55 0 69.29C0 69.11 0.09 69.02 0.27 69.02C0.27 69.02 6.37 69.02 16.7 66.54C28.43 43.81 38.88 35.86 50.26 35.86C50.26 35.86 61.69 35.86 64.7 45.89C68.33 39.46 69.21 37.92 69.21 37.92C70.06 36.39 74.79 25.41 82.98 15.01C91.19 4.64 97.39 2.07 102 0.14Z" fill="#737373" fill-opacity="1.000000" fill-rule="nonzero"/>
	</g>
</svg>
