<svg width="103.000000" height="42.000000" viewBox="0 0 103 42" fill="none" xmlns="http://www.w3.org/2000/svg" xmlns:xlink="http://www.w3.org/1999/xlink">
	<desc>
			Created with Pixso.
	</desc>
	<defs>
		<clipPath id="clip964_17564">
			<rect id="fa-brands:stripe" width="103.000000" height="42.000000" fill="white" fill-opacity="0"/>
		</clipPath>
	</defs>
	<rect id="fa-brands:stripe" width="103.000000" height="42.000000" fill="#FFFFFF" fill-opacity="0"/>
	<g clip-path="url(#clip964_17564)">
		<path id="Vector" d="M26.55 3.29L19.58 4.75L19.55 27.41C19.55 31.59 22.74 34.3 26.97 34.3C29.32 34.3 31.04 33.87 31.99 33.36L31.99 27.98C31.07 28.35 26.57 29.65 26.57 25.48L26.57 15.43L31.99 15.43L31.99 9.41L26.57 9.41L26.55 3.29ZM40.89 11.5L40.46 9.41L34.28 9.41L34.28 33.79L41.41 33.79L41.41 17.38C43.09 15.19 45.94 15.62 46.86 15.9L46.86 9.41C45.89 9.08 42.56 8.46 40.89 11.5ZM55.74 0L48.57 1.51L48.57 7.27L55.74 5.75L55.74 0ZM7.22 16.59C7.22 15.49 8.16 15.06 9.65 15.05C11.82 15.05 14.59 15.7 16.77 16.86L16.77 10.21C14.4 9.29 12.03 8.92 9.67 8.92C3.87 8.92 0.01 11.91 0.01 16.91C0.01 24.73 10.87 23.46 10.87 26.83C10.87 28.14 9.73 28.57 8.14 28.57C5.77 28.57 2.72 27.6 0.32 26.31L0.32 32.67C2.97 33.8 5.66 34.28 8.12 34.28C14.06 34.28 18.15 31.77 18.15 26.67C18.15 18.26 7.22 19.77 7.22 16.59ZM103 21.89C103 14.65 99.46 8.94 92.66 8.94C85.87 8.94 81.74 14.65 81.74 21.84C81.74 30.35 86.61 34.28 93.56 34.28C96.98 34.28 99.54 33.52 101.48 32.45L101.48 27.14C99.54 28.11 97.3 28.7 94.47 28.7C91.68 28.7 89.24 27.72 88.91 24.42L102.9 24.42C102.93 24.05 103 22.57 103 21.89ZM88.85 19.21C88.85 16.03 90.83 14.7 92.62 14.7C94.37 14.7 96.24 16.03 96.24 19.21L88.85 19.21ZM70.68 8.94C67.88 8.94 66.08 10.24 65.08 11.15L64.71 9.4L58.42 9.4L58.42 41.98L65.56 40.48L65.58 32.5C66.61 33.25 68.14 34.28 70.63 34.28C75.75 34.28 80.42 30.59 80.42 21.62C80.43 13.41 75.7 8.94 70.68 8.94ZM68.97 28.42C67.3 28.42 66.3 27.82 65.61 27.09L65.56 16.59C66.3 15.78 67.33 15.19 68.97 15.19C71.58 15.19 73.38 18.08 73.38 21.77C73.4 25.58 71.63 28.42 68.97 28.42ZM48.58 33.79L55.76 33.79L55.76 9.41L48.58 9.41L48.58 33.79Z" fill="#737373" fill-opacity="1.000000" fill-rule="nonzero"/>
	</g>
</svg>
