<svg width="104.000000" height="62.000000" viewBox="0 0 104 62" fill="none" xmlns="http://www.w3.org/2000/svg" xmlns:xlink="http://www.w3.org/1999/xlink">
	<desc>
			Created with Pixso.
	</desc>
	<defs>
		<clipPath id="clip964_17567">
			<rect id="fa-brands:aws" width="104.000000" height="62.000000" fill="white" fill-opacity="0"/>
		</clipPath>
	</defs>
	<rect id="fa-brands:aws" width="104.000000" height="62.000000" fill="#FFFFFF" fill-opacity="0"/>
	<g clip-path="url(#clip964_17567)">
		<path id="Vector" d="M29.38 22.48C29.27 26.12 31.1 27.73 31.14 28.76C31.12 28.96 31.05 29.16 30.94 29.34C30.82 29.51 30.66 29.66 30.48 29.76L28.41 31.2C28.14 31.39 27.82 31.5 27.5 31.51C27.42 31.51 26.17 31.8 24.18 27.4C22.96 28.9 21.42 30.11 19.66 30.93C17.9 31.75 15.98 32.16 14.03 32.13C11.4 32.27 4.25 30.64 4.62 23.1C4.36 16.95 10.14 13.13 16.11 13.45C17.26 13.46 19.61 13.51 23.72 14.46L23.72 11.95C24.16 7.7 21.34 4.4 16.46 4.9C16.07 4.9 13.32 4.82 9.04 6.52C7.84 7.07 7.69 6.98 7.29 6.98C6.09 6.98 6.59 3.53 6.82 3.09C7.66 2.06 12.63 0.14 17.5 0.17C20.76 -0.12 24 0.88 26.52 2.94C27.55 4.08 28.33 5.41 28.82 6.86C29.31 8.3 29.5 9.83 29.38 11.35L29.38 22.48ZM15.38 27.69C20.64 27.61 22.86 24.48 23.37 22.79C23.77 21.18 23.7 20.16 23.7 18.39C22.13 18.02 19.88 17.61 17.29 17.61C14.84 17.43 10.35 18.51 10.53 22.79C10.33 25.49 12.33 27.83 15.38 27.69ZM43.07 31.39C41.8 31.5 41.2 30.61 41.02 29.72L32.95 3.28C32.79 2.83 32.69 2.37 32.64 1.9C32.61 1.7 32.66 1.51 32.77 1.35C32.89 1.19 33.07 1.08 33.26 1.06C33.3 1.05 32.92 1.06 36.87 1.06C38.29 0.91 38.75 2.02 38.9 2.72L44.69 25.34L50.06 2.72C50.14 2.2 50.54 0.94 52.13 1.08L54.91 1.08C55.26 1.05 56.71 1 56.97 2.74L62.38 25.65L68.35 2.74C68.43 2.39 68.79 0.92 70.41 1.08L73.6 1.08C73.74 1.06 74.6 0.95 74.45 2.45C74.38 2.75 75 0.74 65.91 29.74C65.72 30.63 65.13 31.53 63.85 31.41L60.83 31.41C59.05 31.59 58.8 29.86 58.77 29.68L53.4 7.66L48.09 29.66C48.06 29.84 47.81 31.57 46.04 31.39L43.07 31.39L43.07 31.39ZM87.37 32.29C86.42 32.29 81.88 32.24 78.08 30.32C77.7 30.16 77.38 29.89 77.15 29.55C76.93 29.21 76.81 28.81 76.82 28.41L76.82 26.68C76.82 25.32 77.82 25.57 78.25 25.73C79.87 26.39 80.91 26.88 82.91 27.28C88.85 28.48 91.46 26.91 92.1 26.56C94.23 25.3 94.4 22.43 92.95 20.94C91.25 19.53 90.44 19.48 84.34 17.57C83.59 17.36 77.27 15.38 77.25 9.16C77.15 4.62 81.31 0.13 88.51 0.17C90.57 0.17 96.03 0.84 97.51 2.68C97.73 3.02 97.84 3.41 97.83 3.81L97.83 5.44C97.83 6.15 97.56 6.51 97.04 6.51C95.79 6.37 93.57 4.71 89.07 4.78C87.96 4.72 82.61 4.92 82.85 8.79C82.78 11.83 87.16 12.98 87.66 13.11C93.57 14.87 95.54 15.16 97.89 17.86C100.66 21.43 99.17 25.62 98.59 26.76C95.5 32.79 87.51 32.3 87.37 32.29ZM93.88 49.14C82.54 57.44 66.07 61.86 52.01 61.86C33.04 61.99 14.71 55.07 0.62 42.47C-0.44 41.53 0.49 40.23 1.78 40.95C17.41 49.82 35.1 54.48 53.11 54.46C66.56 54.39 79.86 51.69 92.25 46.5C94.15 45.7 95.77 47.76 93.88 49.14ZM98.61 43.79C97.16 41.94 89.01 42.92 85.36 43.36C84.26 43.48 84.07 42.53 85.07 41.84C91.56 37.31 102.22 38.61 103.45 40.13C104.67 41.65 103.12 52.24 97.04 57.3C96.11 58.08 95.21 57.67 95.63 56.64C97 53.23 100.06 45.64 98.61 43.79Z" fill="#737373" fill-opacity="1.000000" fill-rule="nonzero"/>
	</g>
</svg>
