<svg width="76.000000" height="72.000000" viewBox="0 0 76 72" fill="none" xmlns="http://www.w3.org/2000/svg" xmlns:xlink="http://www.w3.org/1999/xlink">
	<desc>
			Created with Pixso.
	</desc>
	<defs>
		<clipPath id="clip964_17570">
			<rect id="fa-brands:reddit-alien" width="76.000000" height="72.000000" fill="white" fill-opacity="0"/>
		</clipPath>
	</defs>
	<rect id="fa-brands:reddit-alien" width="76.000000" height="72.000000" fill="#FFFFFF" fill-opacity="0"/>
	<g clip-path="url(#clip964_17570)">
		<path id="Vector" d="M67.42 27.66C65.03 27.66 62.92 28.65 61.37 30.21C55.67 26.25 47.99 23.7 39.48 23.42L43.9 3.41L57.99 6.59C57.99 10.05 60.79 12.87 64.24 12.87C67.76 12.87 70.58 9.97 70.58 6.51C70.58 3.04 67.77 0.14 64.24 0.14C61.79 0.14 59.66 1.63 58.61 3.67L43.06 0.2C42.27 0 41.51 0.56 41.3 1.34L36.45 23.41C28 23.76 20.4 26.31 14.68 30.27C13.14 28.65 10.95 27.66 8.55 27.66C-0.32 27.66 -3.23 39.62 4.9 43.71C4.61 44.98 4.48 46.32 4.48 47.67C4.48 61.11 19.55 72 38.06 72C56.64 72 71.72 61.11 71.72 47.67C71.72 46.32 71.57 44.91 71.22 43.64C79.19 39.54 76.25 27.66 67.42 27.66ZM17.78 44.56C17.78 41.03 20.59 38.19 24.12 38.19C27.57 38.19 30.38 41.01 30.38 44.56C30.38 48.02 27.57 50.84 24.12 50.84C20.61 50.86 17.78 48.02 17.78 44.56ZM52 59.55C46.19 65.39 29.79 65.39 23.98 59.55C23.34 58.99 23.34 58 23.98 57.35C24.54 56.79 25.53 56.79 26.08 57.35C30.52 61.92 45.24 62 49.87 57.35C50.43 56.79 51.42 56.79 51.98 57.35C52.64 58 52.64 58.99 52 59.55ZM51.87 50.86C48.42 50.86 45.61 48.04 45.61 44.57C45.61 41.05 48.42 38.21 51.87 38.21C55.38 38.21 58.21 41.03 58.21 44.57C58.19 48.02 55.38 50.86 51.87 50.86Z" fill="#737373" fill-opacity="1.000000" fill-rule="nonzero"/>
	</g>
</svg>
